<svg xmlns="http://www.w3.org/2000/svg" width="1922" height="1025.857" viewBox="0 0 1922 1025.857">
  <path id="Subtraction_3" data-name="Subtraction 3" d="M3605.219,1430.5H1684.5V487.994c13.346-4.139,26.855-8.172,40.151-11.989,20.73-5.951,41.8-11.624,62.61-16.863,21.082-5.305,42.456-10.3,63.527-14.851,21.368-4.614,43-8.893,64.294-12.718,21.575-3.876,43.414-7.4,64.91-10.46,21.791-3.106,43.787-5.824,65.377-8.079,21.919-2.288,44.021-4.163,65.69-5.572,18.555-1.207,37.247-1.818,55.556-1.818,20.908,0,42.029.8,62.778,2.373,19.786,1.5,39.911,3.758,59.816,6.711,18.818,2.794,38.1,6.309,57.311,10.448,17.963,3.87,36.557,8.437,55.265,13.575,17.428,4.785,34.985,10.05,53.677,16.1,16.647,5.384,33.835,11.275,52.546,18.01,34.689,12.486,69.586,26.1,103.334,39.259l.008,0,.026.01.022.008.106.042.036.015.029.011.152.059.039.015c25.495,9.944,51.858,20.227,78.249,30.074,29.663,11.068,56.023,20.324,80.589,28.3,29.509,9.58,57.077,17.548,84.278,24.359,14.723,3.688,29.531,7.071,44.011,10.054,15.169,3.125,30.485,5.914,45.523,8.291,16.77,2.648,34.644,4.954,53.126,6.852,17.55,1.8,36.261,3.3,55.615,4.448,35.449,2.1,73.72,3.125,117,3.125,74.046,0,150.668-3.011,224.768-5.924h.035l2.056-.082h.041l.313-.013.078,0,.046,0c34.686-1.364,70.553-2.774,105.343-3.846,39.062-1.2,72.645-1.845,102.669-1.961v812.521q-.126.894-.248,1.791l-.033.241Z" transform="translate(-1684 -405.144)" fill="#c9e9e9" stroke="rgba(0,0,0,0)" stroke-miterlimit="10" stroke-width="1"/>
</svg>
