<svg xmlns="http://www.w3.org/2000/svg" width="54.535" height="53.172" viewBox="0 0 54.535 53.172">
  <path id="github" d="M18.241,43.377c0,.22-.253.4-.572.4-.363.033-.616-.143-.616-.4,0-.22.253-.4.572-.4C17.955,42.948,18.241,43.124,18.241,43.377Zm-3.419-.495c-.077.22.143.473.473.539a.516.516,0,0,0,.682-.22c.066-.22-.143-.473-.473-.572A.564.564,0,0,0,14.821,42.882Zm4.86-.187c-.319.077-.539.286-.506.539.033.22.319.363.649.286s.539-.286.506-.506S20,42.662,19.681,42.7ZM26.916.562C11.666.562,0,12.14,0,27.39a27.565,27.565,0,0,0,18.636,26.3c1.407.253,1.9-.616,1.9-1.33,0-.682-.033-4.442-.033-6.751,0,0-7.7,1.649-9.313-3.277,0,0-1.253-3.2-3.057-4.024,0,0-2.518-1.726.176-1.693a5.8,5.8,0,0,1,4.244,2.837c2.408,4.244,6.443,3.024,8.015,2.3a6.111,6.111,0,0,1,1.759-3.705c-6.146-.682-12.347-1.572-12.347-12.149a8.333,8.333,0,0,1,2.595-6.476,10.388,10.388,0,0,1,.286-7.466c2.3-.715,7.587,2.969,7.587,2.969a25.975,25.975,0,0,1,13.81,0s5.289-3.694,7.587-2.969a10.383,10.383,0,0,1,.286,7.466c1.759,1.946,2.837,3.463,2.837,6.476,0,10.61-6.476,11.457-12.622,12.149,1.012.869,1.869,2.518,1.869,5.1,0,3.705-.033,8.29-.033,9.192,0,.715.506,1.583,1.9,1.33,10.995-3.65,18.45-14.085,18.45-26.278C54.535,12.14,42.166.562,26.916.562ZM10.687,38.484c-.143.11-.11.363.077.572.176.176.429.253.572.11.143-.11.11-.363-.077-.572C11.083,38.418,10.83,38.341,10.687,38.484ZM9.5,37.594c-.077.143.033.319.253.429a.327.327,0,0,0,.473-.077c.077-.143-.033-.319-.253-.429C9.753,37.451,9.577,37.484,9.5,37.594Zm3.562,3.914c-.176.143-.11.473.143.682.253.253.572.286.715.11.143-.143.077-.473-.143-.682C13.535,41.365,13.2,41.332,13.062,41.508Zm-1.253-1.616c-.176.11-.176.4,0,.649s.473.363.616.253a.5.5,0,0,0,0-.682C12.27,39.859,11.985,39.749,11.809,39.891Z" transform="translate(0 -0.563)" fill="#414141"/>
</svg>
