<svg xmlns="http://www.w3.org/2000/svg" width="54.535" height="53.172" viewBox="0 0 54.535 53.172">
  <path id="Icon_simple-github" data-name="Icon simple-github" d="M27.268.446a27.262,27.262,0,0,0-8.623,53.125c1.363.257,1.863-.586,1.863-1.311,0-.647-.023-2.363-.034-4.634-7.585,1.645-9.185-3.658-9.185-3.658-1.241-3.146-3.034-3.987-3.034-3.987-2.47-1.69.191-1.656.191-1.656a5.717,5.717,0,0,1,4.176,2.808C15.054,45.3,19.005,44.1,20.564,43.4a5.811,5.811,0,0,1,1.727-3.646c-6.056-.682-12.42-3.026-12.42-13.472a10.516,10.516,0,0,1,2.806-7.315,9.691,9.691,0,0,1,.239-7.215s2.284-.732,7.5,2.794a25.714,25.714,0,0,1,13.634,0c5.181-3.526,7.464-2.794,7.464-2.794a9.959,9.959,0,0,1,.273,7.215,10.559,10.559,0,0,1,2.795,7.315c0,10.473-6.374,12.779-12.441,13.449a6.526,6.526,0,0,1,1.841,5.043c0,3.648-.034,6.579-.034,7.465,0,.716.477,1.568,1.875,1.295A27.227,27.227,0,0,0,27.268.445" transform="translate(0 -0.446)" fill="#414141"/>
</svg>
