<svg xmlns="http://www.w3.org/2000/svg" width="96.322" height="96.321" viewBox="0 0 96.322 96.321">
  <path id="Icon_metro-linkedin" data-name="Icon metro-linkedin" d="M82.713,1.928H18.75A16.227,16.227,0,0,0,2.571,18.107V82.071A16.227,16.227,0,0,0,18.75,98.25H82.713A16.227,16.227,0,0,0,98.892,82.071V18.107A16.227,16.227,0,0,0,82.713,1.928ZM38.691,80.189H26.651V38.049h12.04V80.189Zm-6.02-48.161a6.02,6.02,0,1,1,6.02-6.02A6.02,6.02,0,0,1,32.671,32.029ZM80.832,80.189H68.792V56.109a6.02,6.02,0,1,0-12.04,0v24.08H44.711V38.049h12.04v7.475c2.483-3.411,6.279-7.475,10.535-7.475,7.481,0,13.545,6.738,13.545,15.05Z" transform="translate(-2.571 -1.928)" fill="#414141"/>
</svg>
