<svg xmlns="http://www.w3.org/2000/svg" width="47.864" height="59.493" viewBox="0 0 47.864 59.493">
  <path id="link" d="M23.432,39.4a2.263,2.263,0,0,1-1.76-.906,17.13,17.13,0,0,1,0-20.529L30.864,6.541a10.6,10.6,0,0,1,8.26-4.252,10.6,10.6,0,0,1,8.26,4.252,17.13,17.13,0,0,1,0,20.529l-4.2,5.221a2.163,2.163,0,0,1-3.521,0,3.646,3.646,0,0,1,0-4.375l4.2-5.221a9.829,9.829,0,0,0,0-11.779,5.824,5.824,0,0,0-9.479,0L25.192,22.339a9.829,9.829,0,0,0,0,11.779,3.646,3.646,0,0,1,0,4.375,2.263,2.263,0,0,1-1.76.906Zm-8.82,22.383a10.6,10.6,0,0,1-8.26-4.252A17.13,17.13,0,0,1,6.352,37l4.2-5.221a2.163,2.163,0,0,1,3.521,0,3.646,3.646,0,0,1,0,4.375l-4.2,5.221a9.829,9.829,0,0,0,0,11.779A6.08,6.08,0,0,0,14.612,55.6a6.081,6.081,0,0,0,4.74-2.44l9.192-11.423a9.829,9.829,0,0,0,0-11.779,3.646,3.646,0,0,1,0-4.375,2.163,2.163,0,0,1,3.521,0,17.13,17.13,0,0,1,0,20.529L22.872,57.531a10.6,10.6,0,0,1-8.26,4.252Z" transform="translate(-2.936 -2.29)" fill="#414141"/>
</svg>
