<svg xmlns="http://www.w3.org/2000/svg" width="1922" height="235.212" viewBox="0 0 1922 235.212">
  <path id="Subtraction_7" data-name="Subtraction 7" d="M1922,234.212H1V82.349c13.34-4.136,26.849-8.17,40.152-11.988,20.731-5.951,41.8-11.625,62.61-16.863,21.077-5.3,42.45-10.3,63.527-14.851,21.351-4.611,42.982-8.89,64.293-12.719,21.581-3.877,43.42-7.4,64.91-10.459,21.789-3.105,43.785-5.824,65.377-8.079,21.918-2.288,44.019-4.162,65.69-5.572C446.118.612,464.809,0,483.115,0c20.9,0,42.025.8,62.778,2.372,19.8,1.5,39.925,3.76,59.816,6.712,18.812,2.793,38.094,6.308,57.311,10.447,17.959,3.869,36.553,8.436,55.265,13.575,17.432,4.786,34.99,10.052,53.676,16.1,16.657,5.387,33.845,11.278,52.546,18.009,34.74,12.5,69.611,26.106,103.334,39.26l.008,0,.026.011.022.008.106.041.036.015.029.011.152.059.039.015.15.059c25.437,9.922,51.74,20.181,78.1,30.015,29.664,11.069,56.026,20.325,80.59,28.3,29.51,9.58,57.077,17.549,84.278,24.36,14.719,3.687,29.526,7.069,44.01,10.053,15.161,3.124,30.477,5.913,45.523,8.291,16.78,2.65,34.655,4.956,53.126,6.853,17.553,1.8,36.264,3.3,55.615,4.449,35.454,2.1,73.726,3.125,117,3.125,74.052,0,150.671-3.011,224.767-5.924h.036l2.055-.082h.041l.313-.013.077,0,.047,0,.075,0h.011c34.658-1.362,70.5-2.771,105.256-3.843,39.053-1.2,72.636-1.845,102.669-1.961v23.908Z" transform="translate(-0.5 0.5)" fill="#c9e9e9" stroke="rgba(0,0,0,0)" stroke-miterlimit="10" stroke-width="1"/>
</svg>
